{
    "asset" : {
        "generator" : "Khronos glTF Blender I/O v1.0.5",
        "version" : "2.0"
    },
    "scene" : 0,
    "scenes" : [
        {
            "name" : "Scene",
            "nodes" : [
                0
            ]
        }
    ],
    "nodes" : [
        {
            "mesh" : 0,
            "name" : "autumn_casualwoman_01",
            "rotation" : [
                0.7071068286895752,
                0,
                0,
                0.7071067094802856
            ],
            "scale" : [
                0.3050820827484131,
                0.3050820827484131,
                0.3050820827484131
            ],
            "translation" : [
                0.7330561876296997,
                -10.150007247924805,
                0
            ]
        }
    ],
    "materials" : [
        {
            "doubleSided" : true,
            "name" : "wire_134110008",
            "pbrMetallicRoughness" : {
                "baseColorTexture" : {
                    "index" : 0,
                    "texCoord" : 0
                },
                "metallicFactor" : 0,
                "roughnessFactor" : 1
            }
        }
    ],
    "meshes" : [
        {
            "name" : "autumn_casualwoman_01",
            "primitives" : [
                {
                    "attributes" : {
                        "POSITION" : 0,
                        "NORMAL" : 1,
                        "TEXCOORD_0" : 2
                    },
                    "indices" : 3,
                    "material" : 0
                }
            ]
        }
    ],
    "textures" : [
        {
            "source" : 0
        }
    ],
    "images" : [
        {
            "bufferView" : 4,
            "mimeType" : "image/png",
            "name" : "honaljak"
        }
    ],
    "accessors" : [
        {
            "bufferView" : 0,
            "componentType" : 5126,
            "count" : 26776,
            "max" : [
                7.127999782562256,
                4.848899841308594,
                0.08659999817609787
            ],
            "min" : [
                -14.430299758911133,
                -19.541500091552734,
                -65.09709930419922
            ],
            "type" : "VEC3"
        },
        {
            "bufferView" : 1,
            "componentType" : 5126,
            "count" : 26776,
            "type" : "VEC3"
        },
        {
            "bufferView" : 2,
            "componentType" : 5126,
            "count" : 26776,
            "type" : "VEC2"
        },
        {
            "bufferView" : 3,
            "componentType" : 5123,
            "count" : 149958,
            "type" : "SCALAR"
        }
    ],
    "bufferViews" : [
        {
            "buffer" : 0,
            "byteLength" : 321312,
            "byteOffset" : 0
        },
        {
            "buffer" : 0,
            "byteLength" : 321312,
            "byteOffset" : 321312
        },
        {
            "buffer" : 0,
            "byteLength" : 214208,
            "byteOffset" : 642624
        },
        {
            "buffer" : 0,
            "byteLength" : 299916,
            "byteOffset" : 856832
        },
        {
            "buffer" : 0,
            "byteLength" : 327207,
            "byteOffset" : 1156748
        }
    ],
    "buffers" : [
        {
            "byteLength" : 1483956,
            "uri" : "data:application/octet-stream;base64,"
        }
    ]
}
