{
    "asset" : {
        "generator" : "Khronos glTF Blender I/O v1.0.5",
        "version" : "2.0"
    },
    "scene" : 0,
    "scenes" : [
        {
            "name" : "Scene",
            "nodes" : [
                0,
                1,
                2
            ]
        }
    ],
    "nodes" : [
        {
            "name" : "Light",
            "rotation" : [
                0.16907575726509094,
                0.7558803558349609,
                -0.27217137813568115,
                0.570947527885437
            ],
            "translation" : [
                4.076245307922363,
                5.903861999511719,
                -1.0054539442062378
            ]
        },
        {
            "name" : "Camera",
            "rotation" : [
                0.483536034822464,
                0.33687159419059753,
                -0.20870360732078552,
                0.7804827094078064
            ],
            "translation" : [
                7.358891487121582,
                4.958309173583984,
                6.925790786743164
            ]
        },
        {
            "mesh" : 0,
            "name" : "chair",
            "rotation" : [
                0.7071068286895752,
                0,
                0,
                0.7071067094802856
            ],
            "scale" : [
                0.050000011920928955,
                0.050000011920928955,
                0.050000011920928955
            ],
            "translation" : [
                0,
                -0.5,
                0
            ]
        }
    ],
    "materials" : [
        {
            "name" : "Default OBJ",
            "pbrMetallicRoughness" : {
                "baseColorTexture" : {
                    "index" : 0,
                    "texCoord" : 0
                },
                "metallicFactor" : 0,
                "roughnessFactor" : 0.5
            }
        }
    ],
    "meshes" : [
        {
            "name" : "chair",
            "primitives" : [
                {
                    "attributes" : {
                        "POSITION" : 0,
                        "NORMAL" : 1,
                        "TEXCOORD_0" : 2
                    },
                    "indices" : 3,
                    "material" : 0
                }
            ]
        }
    ],
    "textures" : [
        {
            "source" : 0
        }
    ],
    "images" : [
        {
            "bufferView" : 4,
            "mimeType" : "image/png",
            "name" : "Anton_Corbijn_Keith_Smoking_1999_128x128bw"
        }
    ],
    "accessors" : [
        {
            "bufferView" : 0,
            "componentType" : 5126,
            "count" : 30516,
            "max" : [
                46.86930465698242,
                57.56959533691406,
                23.522310256958008
            ],
            "min" : [
                -57.870750427246094,
                -53.52090835571289,
                -55.201210021972656
            ],
            "type" : "VEC3"
        },
        {
            "bufferView" : 1,
            "componentType" : 5126,
            "count" : 30516,
            "type" : "VEC3"
        },
        {
            "bufferView" : 2,
            "componentType" : 5126,
            "count" : 30516,
            "type" : "VEC2"
        },
        {
            "bufferView" : 3,
            "componentType" : 5123,
            "count" : 30516,
            "type" : "SCALAR"
        }
    ],
    "bufferViews" : [
        {
            "buffer" : 0,
            "byteLength" : 366192,
            "byteOffset" : 0
        },
        {
            "buffer" : 0,
            "byteLength" : 366192,
            "byteOffset" : 366192
        },
        {
            "buffer" : 0,
            "byteLength" : 244128,
            "byteOffset" : 732384
        },
        {
            "buffer" : 0,
            "byteLength" : 61032,
            "byteOffset" : 976512
        },
        {
            "buffer" : 0,
            "byteLength" : 1420,
            "byteOffset" : 1037544
        }
    ],
    "buffers" : [
        {
            "byteLength" : 1038964,
            "uri" : "data:application/octet-stream;base64,"
        }
    ]
}
