{
    "asset" : {
        "generator" : "Khronos glTF Blender I/O v1.0.5",
        "version" : "2.0"
    },
    "scene" : 0,
    "scenes" : [
        {
            "name" : "Scene",
            "nodes" : [
                0
            ]
        }
    ],
    "nodes" : [
        {
            "mesh" : 0,
            "name" : "foot",
            "rotation" : [
                0.7071068286895752,
                0,
                0,
                0.7071067094802856
            ]
        }
    ],
    "materials" : [
        {
            "alphaMode" : "BLEND",
            "name" : "SingleTexture",
            "pbrMetallicRoughness" : {
                "baseColorTexture" : {
                    "index" : 0,
                    "texCoord" : 0
                },
                "metallicFactor" : 0,
                "roughnessFactor" : 0.5
            }
        }
    ],
    "meshes" : [
        {
            "name" : "foot",
            "primitives" : [
                {
                    "attributes" : {
                        "POSITION" : 0,
                        "NORMAL" : 1,
                        "TEXCOORD_0" : 2
                    },
                    "indices" : 3,
                    "material" : 0
                }
            ]
        }
    ],
    "textures" : [
        {
            "source" : 0
        }
    ],
    "images" : [
        {
            "bufferView" : 4,
            "mimeType" : "image/png",
            "name" : "IMG_0273"
        }
    ],
    "accessors" : [
        {
            "bufferView" : 0,
            "componentType" : 5126,
            "count" : 41358,
            "max" : [
                5.7006754875183105,
                2.1865625381469727,
                4.0404253005981445
            ],
            "min" : [
                -5.602259159088135,
                -1.93108069896698,
                -3.7478976249694824
            ],
            "type" : "VEC3"
        },
        {
            "bufferView" : 1,
            "componentType" : 5126,
            "count" : 41358,
            "type" : "VEC3"
        },
        {
            "bufferView" : 2,
            "componentType" : 5126,
            "count" : 41358,
            "type" : "VEC2"
        },
        {
            "bufferView" : 3,
            "componentType" : 5123,
            "count" : 41364,
            "type" : "SCALAR"
        }
    ],
    "bufferViews" : [
        {
            "buffer" : 0,
            "byteLength" : 496296,
            "byteOffset" : 0
        },
        {
            "buffer" : 0,
            "byteLength" : 496296,
            "byteOffset" : 496296
        },
        {
            "buffer" : 0,
            "byteLength" : 330864,
            "byteOffset" : 992592
        },
        {
            "buffer" : 0,
            "byteLength" : 82728,
            "byteOffset" : 1323456
        },
        {
            "buffer" : 0,
            "byteLength" : 220133,
            "byteOffset" : 1406184
        }
    ],
    "buffers" : [
        {
            "byteLength" : 1626320,
            "uri" : "data:application/octet-stream;base64,"
        }
    ]
}
