{
    "asset" : {
        "generator" : "Khronos glTF Blender I/O v1.0.5",
        "version" : "2.0"
    },
    "scene" : 0,
    "scenes" : [
        {
            "name" : "Scene",
            "nodes" : [
                0
            ]
        }
    ],
    "nodes" : [
        {
            "mesh" : 0,
            "name" : "obj0",
            "rotation" : [
                0.7071068286895752,
                0,
                0,
                0.7071067094802856
            ],
            "scale" : [
                0.10245746374130249,
                0.10245746374130249,
                0.10245746374130249
            ]
        }
    ],
    "materials" : [
        {
            "doubleSided" : true,
            "name" : "wire_177028149",
            "pbrMetallicRoughness" : {
                "baseColorTexture" : {
                    "index" : 0,
                    "texCoord" : 0
                },
                "metallicFactor" : 0,
                "roughnessFactor" : 0.5
            }
        }
    ],
    "meshes" : [
        {
            "name" : "obj0",
            "primitives" : [
                {
                    "attributes" : {
                        "POSITION" : 0,
                        "NORMAL" : 1,
                        "TEXCOORD_0" : 2
                    },
                    "indices" : 3,
                    "material" : 0
                }
            ]
        }
    ],
    "textures" : [
        {
            "source" : 0
        }
    ],
    "images" : [
        {
            "bufferView" : 4,
            "mimeType" : "image/png",
            "name" : "Richard-Avedon128x128bw"
        }
    ],
    "accessors" : [
        {
            "bufferView" : 0,
            "componentType" : 5126,
            "count" : 26739,
            "max" : [
                29.239700317382812,
                27.421499252319336,
                86.625
            ],
            "min" : [
                -28.66029930114746,
                -26.87849998474121,
                -88.375
            ],
            "type" : "VEC3"
        },
        {
            "bufferView" : 1,
            "componentType" : 5126,
            "count" : 26739,
            "type" : "VEC3"
        },
        {
            "bufferView" : 2,
            "componentType" : 5126,
            "count" : 26739,
            "type" : "VEC2"
        },
        {
            "bufferView" : 3,
            "componentType" : 5123,
            "count" : 150042,
            "type" : "SCALAR"
        }
    ],
    "bufferViews" : [
        {
            "buffer" : 0,
            "byteLength" : 320868,
            "byteOffset" : 0
        },
        {
            "buffer" : 0,
            "byteLength" : 320868,
            "byteOffset" : 320868
        },
        {
            "buffer" : 0,
            "byteLength" : 213912,
            "byteOffset" : 641736
        },
        {
            "buffer" : 0,
            "byteLength" : 300084,
            "byteOffset" : 855648
        },
        {
            "buffer" : 0,
            "byteLength" : 1198,
            "byteOffset" : 1155732
        }
    ],
    "buffers" : [
        {
            "byteLength" : 1156932,
            "uri" : "data:application/octet-stream;base64,"
        }
    ]
}
