{
    "asset" : {
        "generator" : "Khronos glTF Blender I/O v1.0.5",
        "version" : "2.0"
    },
    "scene" : 0,
    "scenes" : [
        {
            "name" : "Scene",
            "nodes" : [
                0,
                1,
                2
            ]
        }
    ],
    "nodes" : [
        {
            "name" : "Light",
            "rotation" : [
                0.16907575726509094,
                0.7558803558349609,
                -0.27217137813568115,
                0.570947527885437
            ],
            "translation" : [
                4.076245307922363,
                5.903861999511719,
                -1.0054539442062378
            ]
        },
        {
            "name" : "Camera",
            "rotation" : [
                0.483536034822464,
                0.33687159419059753,
                -0.20870360732078552,
                0.7804827094078064
            ],
            "translation" : [
                7.358891487121582,
                4.958309173583984,
                6.925790786743164
            ]
        },
        {
            "mesh" : 0,
            "name" : "model_with_dog",
            "rotation" : [
                -0.5000001192092896,
                -0.5000001788139343,
                -0.4999998211860657,
                0.49999991059303284
            ],
            "scale" : [
                3.2115581035614014,
                3.2115581035614014,
                3.2115581035614014
            ]
        }
    ],
    "materials" : [
        {
            "name" : "Default OBJ",
            "pbrMetallicRoughness" : {
                "baseColorTexture" : {
                    "index" : 0,
                    "texCoord" : 0
                },
                "metallicFactor" : 0,
                "roughnessFactor" : 1
            }
        }
    ],
    "meshes" : [
        {
            "name" : "model_with_dog",
            "primitives" : [
                {
                    "attributes" : {
                        "POSITION" : 0,
                        "NORMAL" : 1,
                        "TEXCOORD_0" : 2
                    },
                    "indices" : 3,
                    "material" : 0
                }
            ]
        }
    ],
    "textures" : [
        {
            "source" : 0
        }
    ],
    "images" : [
        {
            "bufferView" : 4,
            "mimeType" : "image/png",
            "name" : "Judy_Garland_OZ1939_cropped_scaled"
        }
    ],
    "accessors" : [
        {
            "bufferView" : 0,
            "componentType" : 5126,
            "count" : 29659,
            "max" : [
                0.8722377419471741,
                0.47723111510276794,
                1.3261455297470093
            ],
            "min" : [
                -0.8188998699188232,
                -0.47294101119041443,
                -0.9806438088417053
            ],
            "type" : "VEC3"
        },
        {
            "bufferView" : 1,
            "componentType" : 5126,
            "count" : 29659,
            "type" : "VEC3"
        },
        {
            "bufferView" : 2,
            "componentType" : 5126,
            "count" : 29659,
            "type" : "VEC2"
        },
        {
            "bufferView" : 3,
            "componentType" : 5123,
            "count" : 149154,
            "type" : "SCALAR"
        }
    ],
    "bufferViews" : [
        {
            "buffer" : 0,
            "byteLength" : 355908,
            "byteOffset" : 0
        },
        {
            "buffer" : 0,
            "byteLength" : 355908,
            "byteOffset" : 355908
        },
        {
            "buffer" : 0,
            "byteLength" : 237272,
            "byteOffset" : 711816
        },
        {
            "buffer" : 0,
            "byteLength" : 298308,
            "byteOffset" : 949088
        },
        {
            "buffer" : 0,
            "byteLength" : 864425,
            "byteOffset" : 1247396
        }
    ],
    "buffers" : [
        {
            "byteLength" : 2111824,
            "uri" : "data:application/octet-stream;base64,"
        }
    ]
}
