{
    "asset" : {
        "generator" : "Khronos glTF Blender I/O v1.0.5",
        "version" : "2.0"
    },
    "scene" : 0,
    "scenes" : [
        {
            "name" : "Scene",
            "nodes" : [
                0
            ]
        }
    ],
    "nodes" : [
        {
            "mesh" : 0,
            "name" : "American_soldier_ww2_Stand_A1",
            "rotation" : [
                0.7071068286895752,
                0,
                0,
                0.7071067094802856
            ],
            "scale" : [
                0.10000002384185791,
                0.10000002384185791,
                0.10000002384185791
            ]
        }
    ],
    "materials" : [
        {
            "name" : "None",
            "pbrMetallicRoughness" : {
                "baseColorTexture" : {
                    "index" : 0,
                    "texCoord" : 0
                },
                "metallicFactor" : 0,
                "roughnessFactor" : 0.2546440064907074
            }
        }
    ],
    "meshes" : [
        {
            "name" : "American_soldier_ww2_Stand_A1",
            "primitives" : [
                {
                    "attributes" : {
                        "POSITION" : 0,
                        "NORMAL" : 1,
                        "TEXCOORD_0" : 2
                    },
                    "indices" : 3,
                    "material" : 0
                },
                {
                    "attributes" : {
                        "POSITION" : 4,
                        "NORMAL" : 5,
                        "TEXCOORD_0" : 6
                    },
                    "indices" : 7,
                    "material" : 0
                },
                {
                    "attributes" : {
                        "POSITION" : 8,
                        "NORMAL" : 9,
                        "TEXCOORD_0" : 10
                    },
                    "indices" : 11,
                    "material" : 0
                }
            ]
        }
    ],
    "textures" : [
        {
            "source" : 0
        }
    ],
    "images" : [
        {
            "bufferView" : 4,
            "mimeType" : "image/png",
            "name" : "Dora_Maar_Nusch_Eluard_Pablo_Picasso_and_Paul_Eluard_on_the_beach1937cropped_scaled"
        }
    ],
    "accessors" : [
        {
            "bufferView" : 0,
            "componentType" : 5126,
            "count" : 65535,
            "max" : [
                11.588973999023438,
                8.990776062011719,
                38.237300872802734
            ],
            "min" : [
                -11.565604209899902,
                -13.351484298706055,
                -32.71232986450195
            ],
            "type" : "VEC3"
        },
        {
            "bufferView" : 1,
            "componentType" : 5126,
            "count" : 65535,
            "type" : "VEC3"
        },
        {
            "bufferView" : 2,
            "componentType" : 5126,
            "count" : 65535,
            "type" : "VEC2"
        },
        {
            "bufferView" : 3,
            "componentType" : 5123,
            "count" : 176799,
            "type" : "SCALAR"
        },
        {
            "bufferView" : 5,
            "componentType" : 5126,
            "count" : 4384,
            "max" : [
                14.602840423583984,
                14.408098220825195,
                40.380741119384766
            ],
            "min" : [
                -13.223713874816895,
                -13.417815208435059,
                -31.548938751220703
            ],
            "type" : "VEC3"
        },
        {
            "bufferView" : 6,
            "componentType" : 5126,
            "count" : 4384,
            "type" : "VEC3"
        },
        {
            "bufferView" : 7,
            "componentType" : 5126,
            "count" : 4384,
            "type" : "VEC2"
        },
        {
            "bufferView" : 8,
            "componentType" : 5123,
            "count" : 4206,
            "type" : "SCALAR"
        },
        {
            "bufferView" : 9,
            "componentType" : 5126,
            "count" : 5537,
            "max" : [
                11.006790161132812,
                8.091034889221191,
                40.293426513671875
            ],
            "min" : [
                -10.85987377166748,
                -13.417815208435059,
                -31.548938751220703
            ],
            "type" : "VEC3"
        },
        {
            "bufferView" : 10,
            "componentType" : 5126,
            "count" : 5537,
            "type" : "VEC3"
        },
        {
            "bufferView" : 11,
            "componentType" : 5126,
            "count" : 5537,
            "type" : "VEC2"
        },
        {
            "bufferView" : 12,
            "componentType" : 5123,
            "count" : 6798,
            "type" : "SCALAR"
        }
    ],
    "bufferViews" : [
        {
            "buffer" : 0,
            "byteLength" : 786420,
            "byteOffset" : 0
        },
        {
            "buffer" : 0,
            "byteLength" : 786420,
            "byteOffset" : 786420
        },
        {
            "buffer" : 0,
            "byteLength" : 524280,
            "byteOffset" : 1572840
        },
        {
            "buffer" : 0,
            "byteLength" : 353598,
            "byteOffset" : 2097120
        },
        {
            "buffer" : 0,
            "byteLength" : 317883,
            "byteOffset" : 2450720
        },
        {
            "buffer" : 0,
            "byteLength" : 52608,
            "byteOffset" : 2768604
        },
        {
            "buffer" : 0,
            "byteLength" : 52608,
            "byteOffset" : 2821212
        },
        {
            "buffer" : 0,
            "byteLength" : 35072,
            "byteOffset" : 2873820
        },
        {
            "buffer" : 0,
            "byteLength" : 8412,
            "byteOffset" : 2908892
        },
        {
            "buffer" : 0,
            "byteLength" : 66444,
            "byteOffset" : 2917304
        },
        {
            "buffer" : 0,
            "byteLength" : 66444,
            "byteOffset" : 2983748
        },
        {
            "buffer" : 0,
            "byteLength" : 44296,
            "byteOffset" : 3050192
        },
        {
            "buffer" : 0,
            "byteLength" : 13596,
            "byteOffset" : 3094488
        }
    ],
    "buffers" : [
        {
            "byteLength" : 3108084,
            "uri" : "data:application/octet-stream;base64,"
        }
    ]
}
